<?xml version="1.0" standalone="no"?>
<!DOCTYPE svg PUBLIC "-//W3C//DTD SVG 20010904//EN"
 "http://www.w3.org/TR/2001/REC-SVG-20010904/DTD/svg10.dtd">
<svg version="1.0" xmlns="http://www.w3.org/2000/svg"
 width="400.000000pt" height="400.000000pt" viewBox="0 0 400.000000 400.000000"
 preserveAspectRatio="xMidYMid meet">

<g transform="translate(0.000000,400.000000) scale(0.100000,-0.100000)"
fill="#000000" stroke="none">
<path d="M1995 3801 c-46 -8 -95 -32 -114 -55 -8 -9 -21 -16 -31 -16 -9 0 -29
-9 -43 -20 -15 -12 -53 -24 -93 -30 -124 -17 -160 -35 -238 -119 -39 -41 -108
-111 -154 -155 -46 -44 -92 -96 -101 -115 -10 -20 -26 -51 -35 -69 -25 -47
-27 -183 -3 -209 9 -11 20 -35 23 -54 4 -19 20 -63 35 -98 37 -83 59 -240 35
-253 -52 -29 -76 -97 -57 -166 17 -67 46 -122 87 -171 28 -33 43 -42 63 -39
33 3 51 -8 51 -31 0 -10 18 -62 40 -117 24 -58 43 -124 46 -159 l6 -60 -44
-45 c-32 -32 -53 -66 -73 -120 -15 -41 -35 -82 -44 -92 -9 -9 -87 -52 -174
-97 -87 -44 -170 -89 -185 -99 -25 -16 -102 -50 -229 -100 -79 -31 -172 -102
-272 -208 -95 -101 -151 -176 -151 -205 0 -26 112 -170 219 -281 105 -110 276
-250 391 -320 310 -189 691 -298 1043 -298 152 0 368 24 411 45 16 8 41 15 56
15 30 0 145 34 274 81 141 52 370 180 471 263 27 23 59 48 70 56 112 85 363
368 385 435 6 19 16 35 20 35 5 0 16 12 24 27 12 24 12 30 -4 52 -10 15 -34
52 -55 84 -83 129 -295 274 -490 337 -38 13 -116 38 -172 56 -56 19 -109 31
-117 28 -10 -4 -18 1 -22 12 -12 40 -57 120 -83 148 -24 26 -95 78 -220 162
-80 54 -80 45 -6 199 36 76 65 139 65 141 0 3 7 21 16 42 9 20 17 57 19 82 1
25 8 70 15 100 6 30 9 67 6 82 -3 15 -1 28 4 28 16 0 23 -47 17 -113 l-6 -62
34 70 c21 43 34 85 35 110 0 52 -32 105 -63 105 -23 0 -23 2 -16 58 14 101 -7
327 -42 436 -17 55 -19 70 -8 76 10 7 10 11 0 24 -8 9 -9 16 -3 16 20 0 -1 40
-24 46 -28 7 -28 6 -8 64 13 38 14 54 3 103 -11 52 -18 63 -73 111 -34 29 -81
66 -105 81 -25 15 -74 52 -110 81 -36 30 -75 54 -87 54 -12 0 -27 7 -34 15 -7
9 -27 15 -44 14 -17 -1 -44 1 -61 4 -16 3 -48 2 -70 -2z m312 -533 c21 -12 44
-28 51 -35 7 -7 18 -13 23 -13 5 0 9 -7 9 -15 0 -8 11 -25 26 -37 65 -57 107
-163 164 -418 33 -143 23 -446 -16 -507 -8 -12 -14 -31 -14 -42 0 -21 -35 -64
-60 -73 -8 -3 -37 -44 -63 -92 -27 -47 -52 -86 -57 -86 -4 0 -10 -9 -13 -20
-4 -14 -12 -19 -28 -18 -13 2 -24 -1 -24 -7 -4 -66 -128 -88 -152 -26 -8 23
-6 32 14 55 38 44 28 60 -40 64 -54 3 -57 4 -51 26 5 20 0 25 -26 34 -17 6
-36 9 -43 6 -17 -6 -52 20 -44 33 7 10 116 25 175 24 18 -1 45 -9 59 -19 15
-9 28 -16 30 -14 14 12 41 -3 50 -29 10 -27 14 -29 32 -19 17 9 21 20 21 64 0
77 -22 123 -62 131 -18 4 -61 27 -97 51 -35 24 -67 44 -72 44 -5 0 -9 7 -9 15
0 20 37 19 48 -1 7 -12 17 -15 36 -10 23 6 26 12 26 46 0 49 -25 67 -72 51
-26 -9 -36 -7 -67 11 -67 41 -73 50 -55 83 15 29 15 41 -2 133 -4 18 -3 61 1
97 6 57 10 67 36 86 l30 21 30 -28 c26 -24 29 -35 29 -86 0 -54 3 -61 37 -96
20 -20 42 -37 47 -37 6 -1 19 -5 28 -9 18 -8 88 27 88 44 0 5 19 13 43 17 33
7 42 13 40 28 -1 11 4 23 10 28 15 9 -39 57 -65 57 -9 0 -20 5 -23 10 -3 6
-17 10 -31 10 -14 0 -22 4 -19 10 3 6 14 10 24 10 12 0 20 10 24 28 3 15 12
36 21 47 12 16 17 18 27 8 15 -15 49 -17 49 -3 0 5 -11 17 -25 26 -27 18 -229
33 -278 20 -29 -7 -87 -58 -87 -77 0 -9 -5 -8 -17 3 -10 8 -38 23 -63 32 -46
18 -130 80 -130 96 0 5 11 21 25 36 13 14 27 34 30 43 3 9 18 25 35 34 16 10
29 23 27 29 -1 6 21 16 48 23 96 25 110 31 107 48 -2 10 2 17 8 17 6 0 9 4 5
9 -3 5 -1 12 4 16 5 3 14 -3 20 -12 10 -16 13 -15 38 15 33 39 74 42 130 10z
m65 -518 l33 -30 -60 26 c-75 33 -75 34 -37 34 21 0 42 -10 64 -30z m-25 -46
c8 -21 -10 -36 -36 -32 -20 3 -21 4 -6 26 19 26 33 28 42 6z m-293 -479 c-5
-13 -9 -13 -23 -3 -9 7 -18 14 -20 15 -2 2 8 3 22 3 20 0 25 -4 21 -15z m141
-26 c11 -17 -1 -21 -15 -4 -8 9 -8 15 -2 15 6 0 14 -5 17 -11z m-45 -19 c0 -5
-7 -10 -15 -10 -8 0 -15 5 -15 10 0 6 7 10 15 10 8 0 15 -4 15 -10z m314 -377
c-11 -134 -42 -213 -132 -333 -98 -131 -111 -143 -155 -136 -21 4 -47 1 -58
-5 -11 -6 -23 -9 -25 -6 -11 11 20 104 41 122 35 32 75 129 45 110 -5 -3 -10
-3 -10 2 0 4 24 19 52 33 63 31 146 114 178 177 24 49 58 103 65 103 2 0 2
-30 -1 -67z m196 -145 c0 -17 -3 -18 -15 -8 -8 7 -15 21 -15 32 0 17 3 18 15
8 8 -7 15 -21 15 -32z m25 -78 c16 -31 12 -56 -6 -44 -14 8 -30 54 -23 65 8
14 12 11 29 -21z m72 -284 c-8 -23 -23 -13 -25 16 -2 31 -1 32 13 13 9 -10 14
-24 12 -29z m-697 -19 c0 -7 -4 -17 -9 -22 -4 -6 -11 -24 -14 -42 -5 -28 -3
-32 21 -40 15 -5 57 -8 93 -7 62 1 70 5 118 42 63 50 81 47 74 -11 -3 -23 -10
-49 -17 -58 -25 -36 -155 -206 -179 -234 -14 -16 -34 -41 -45 -55 l-20 -25
-49 48 c-26 27 -79 65 -118 85 -71 37 -215 169 -215 196 0 29 28 39 78 29 26
-6 55 -14 64 -18 13 -5 20 -2 25 11 4 11 18 31 32 47 22 23 34 27 77 27 43 0
53 3 57 20 6 22 27 28 27 7z m1125 -69 c8 -31 1 -35 -21 -14 -15 16 -18 38 -7
50 10 9 20 -5 28 -36z m-440 22 c3 -5 1 -10 -4 -10 -6 0 -11 5 -11 10 0 6 2
10 4 10 3 0 8 -4 11 -10z m63 -15 c9 -20 9 -25 -2 -25 -13 0 -26 20 -26 41 0
18 17 8 28 -16z m-373 -175 c3 -5 1 -10 -4 -10 -6 0 -11 5 -11 10 0 6 2 10 4
10 3 0 8 -4 11 -10z m45 -10 c0 -5 -7 -7 -15 -4 -8 4 -15 8 -15 10 0 2 7 4 15
4 8 0 15 -4 15 -10z m744 -6 c19 -18 21 -34 5 -34 -12 0 -38 29 -39 43 0 12
18 8 34 -9z m-419 -24 c-3 -5 -12 -10 -18 -10 -7 0 -6 4 3 10 19 12 23 12 15
0z m463 -71 c2 -10 -6 -19 -18 -22 -16 -4 -20 0 -20 20 0 18 5 24 17 21 10 -2
19 -10 21 -19z m35 -89 c4 -17 3 -19 -9 -9 -8 6 -14 18 -14 26 0 20 16 8 23
-17z m-1253 -164 c0 -2 -7 -6 -15 -10 -8 -3 -15 -1 -15 4 0 6 7 10 15 10 8 0
15 -2 15 -4z m11 -69 c-6 -6 -14 -7 -18 -2 -5 4 -2 10 5 12 6 3 13 14 13 26 2
20 2 20 6 -2 3 -13 0 -28 -6 -34z m1273 37 c9 -24 8 -25 -13 -12 -11 7 -17 16
-15 20 8 13 21 9 28 -8z m-1316 -113 c3 -17 -2 -21 -22 -21 -23 0 -26 4 -26
36 0 36 1 36 23 22 12 -9 23 -25 25 -37z m796 -46 c3 -8 1 -15 -4 -15 -6 0
-10 7 -10 15 0 8 2 15 4 15 2 0 6 -7 10 -15z m-814 -5 c0 -5 -7 -10 -15 -10
-8 0 -15 5 -15 10 0 6 7 10 15 10 8 0 15 -4 15 -10z m3 -37 c3 -5 8 -27 12
-50 6 -41 6 -43 -19 -43 -25 0 -26 3 -26 50 0 37 4 50 14 50 8 0 17 -3 19 -7z
m428 -343 c5 0 8 -4 5 -9 -3 -4 -17 -6 -31 -3 -18 3 -25 11 -25 28 l0 24 20
-20 c11 -11 25 -20 31 -20z m-234 -2 c-3 -8 -6 -5 -6 6 -1 11 2 17 5 13 3 -3
4 -12 1 -19z m-157 -15 c0 -22 -2 -25 -10 -13 -13 20 -13 40 0 40 6 0 10 -12
10 -27z"/>
<path d="M1980 541 c0 -5 5 -13 10 -16 6 -3 10 -2 10 4 0 5 -4 13 -10 16 -5 3
-10 2 -10 -4z"/>
</g>
</svg>
